<svg height='100px' width='100px'  fill="#000000" xmlns="http://www.w3.org/2000/svg" xmlns:xlink="http://www.w3.org/1999/xlink" version="1.1" x="0px" y="0px" viewBox="-17.5 -17.5 100 100" enable-background="new -17.5 -17.5 100 100" xml:space="preserve"><path d="M69.335-10.554c-1.717-1.515-3.765-2.669-5.957-3.358c-0.545-0.181-1.111-0.289-1.666-0.433  c-0.565-0.124-1.177-0.181-1.762-0.265c-0.578-0.065-1.063-0.05-1.6-0.079c-0.668-0.021-1.167,0.054-1.757,0.08  c-4.979,0.414-9.624,3.223-12.422,7.276c-1.417,2.023-2.365,4.344-2.754,6.786c-0.068,0.611-0.208,1.289-0.196,1.834l-0.025,0.857  l-0.007,0.214L41.187,2.52l0.008,0.114l0.031,0.456c0.041,0.607,0.07,1.215,0.198,1.811c0.093,0.601,0.21,1.195,0.396,1.774  c1.09,3.888,3.614,7.242,6.88,9.323c0.037,0.024,0.076,0.043,0.113,0.066c-1.126,0.193-2.226,0.624-3.191,1.206  c-1.636,1.004-2.977,2.363-4.078,3.81c-2.413,3.167-4.042,6.749-5.074,10.419c-0.848,3.067-1.248,6.118-1.552,9.138  c-0.106,1.069-0.201,2.138-0.296,3.208c-0.004-0.012-0.007-0.022-0.011-0.034c-0.326-0.675-0.691-1.35-1.092-1.997  c-1.736-2.542-4.273-4.285-6.373-5.639c-2.924-1.957-6.148-3.435-9.517-4.384c-3.248-0.923-6.641-1.322-9.958-1.097  c-0.113-0.476-0.278-0.941-0.489-1.375c-0.849-1.832-2.349-3.237-3.5-4.402C2.044,23.283,0.158,21.9-1.955,20.98  c-2.102-0.92-4.434-1.348-6.665-1.077c-0.396,0.037-0.511,0.916-0.114,1.1c1.836,0.795,3.611,0.947,5.403,1.527  c1.928,0.638,3.703,1.723,5.3,3.047c1.33,1.1,2.558,2.376,3.401,3.928c0.842,1.562,1.275,3.317,0.923,5.18  c-0.03,0.211,0.459,0.244,0.593,0.072c0.687-0.749,0.958-1.755,0.938-2.797c2.759,0.649,5.523,0.9,8.271,1.484  c3.224,0.699,6.342,1.91,9.222,3.528c2.385,1.354,4.613,2.983,6.285,5.154c1.67,2.169,2.697,4.862,2.4,7.729  c-0.014,0.262,0.294,0.34,0.482,0.227c0.051-0.025,0.1-0.056,0.13-0.111c1.288-2.479,1.639-5.303,1.92-8.281  c0.265-2.954,0.472-6.028,1.177-8.567c0.981-3.527,2.527-6.944,4.671-9.905c2.115-2.872,4.932-5.433,8.527-6.038  c2.747,1.218,5.799,1.672,8.709,1.329c1.169-0.146,2.312-0.433,3.417-0.821c-0.012,0.026-0.025,0.048-0.035,0.08  c-1.288,4.508-1.783,9.79-2.396,15.247c-0.312,2.719-0.652,5.46-1.075,8.111c-0.454,2.643-0.968,5.199-1.651,7.508  c-1.898,6.435-4.642,12.731-8.547,18.225c-0.954,1.39-2.039,2.674-3.148,3.932c-1.154,1.211-2.344,2.396-3.671,3.409  c-1.323,1.009-2.721,1.931-4.234,2.623c-1.514,0.685-3.118,1.172-4.776,1.385c-0.261,0.026-0.48,0.097-0.658,0.187  c-4.538-0.719-9.118-1.249-13.595-2.411c-5.218-1.37-10.227-3.626-14.708-6.646c-3.715-2.522-7.041-5.547-9.468-9.276  c-2.424-3.701-3.866-8.17-3.582-12.738c0.023-0.523-0.468-0.657-0.597-0.239c-0.641,1.799-0.747,4.051-0.383,6.252  c0.365,2.226,1.229,4.477,2.427,6.527c2.396,4.149,6.051,7.335,9.227,9.77c8.914,6.845,20.338,10.494,31.418,10.021  c0.36-0.014,0.629-0.143,0.775-0.309c1.284-0.026,2.58-0.239,3.813-0.645c1.594-0.494,3.108-1.24,4.479-2.166  c2.785-1.819,5.046-4.253,7-6.804c2.141-2.79,3.921-5.81,5.429-8.936c1.512-3.126,2.755-6.36,3.755-9.646  c0.842-2.734,1.491-5.478,2.014-8.217c0.539-2.735,0.944-5.47,1.276-8.207c0.684-5.472,1.062-10.964,1.464-16.632  c0.021-0.268-0.054-0.45-0.156-0.543c2.281-0.865,4.373-2.215,6.082-3.972c2.652-2.681,4.347-6.329,4.717-10.23  c0.085-0.859-0.389-1.13-0.566-0.456c-0.719,2.997-2.01,5.919-4.153,8.373c-2.103,2.435-4.98,4.407-8.285,5.196  c-0.82,0.192-1.658,0.362-2.511,0.405l-0.638,0.055l-0.04,0.003l-0.01,0.001c-0.019,0,0.124,0.003,0.059,0.002l-0.021,0  l-0.088-0.001l-0.175-0.003l-0.351-0.006c-0.455-0.017-0.968,0.008-1.342-0.061c-1.606-0.129-3.359-0.577-4.871-1.307  c-3.069-1.444-5.586-3.94-6.889-6.772c-0.94-1.943-1.452-4.165-1.455-6.296c0.031-0.566,0.034-1.154,0.09-1.702  c0.094-0.53,0.128-1.062,0.263-1.594c0.248-1.068,0.576-2.125,1.057-3.114c0.929-1.993,2.299-3.782,3.98-5.209  c1.685-1.427,3.696-2.455,5.824-3.029c4.266-1.151,9.032-0.398,12.679,2.139c3.665,2.495,6.241,6.594,6.783,11.074  c0.133,1.543,1.05,2.184,1.122,0.32C74.82-3.005,72.799-7.547,69.335-10.554z"></path><path d="M50.001,0.7c0.132-0.58,0.308-1.155,0.567-1.693c0.991-2.18,2.994-3.883,5.324-4.492c2.322-0.631,4.919-0.238,6.929,1.127  c2.021,1.345,3.481,3.563,3.854,6.049c0.099,0.845,1.003,1.242,1.114,0.145c0.239-2.573-0.916-5.352-2.985-7.159  c-1.024-0.914-2.257-1.603-3.573-2.006c-0.652-0.196-1.333-0.334-2.081-0.404c-0.351-0.035-0.604-0.021-0.911-0.035  c-0.438-0.011-0.707,0.037-1.067,0.056c-2.971,0.275-5.722,1.969-7.356,4.386c-0.829,1.208-1.375,2.582-1.59,4.034  c-0.038,0.362-0.115,0.795-0.103,1.088l-0.007,0.482l-0.002,0.12l-0.002,0.114l0.006,0.067l0.021,0.268  c0.049,0.712,0.165,1.423,0.381,2.101c0.679,2.273,2.2,4.192,4.114,5.352c1.9,1.175,4.194,1.602,6.298,1.315  c4.277-0.583,7.845-4.126,8.39-8.628c0.065-0.481-0.414-0.644-0.576-0.269c-0.688,1.677-1.55,3.12-2.738,4.349  c-1.17,1.21-2.632,2.202-4.33,2.646c-0.422,0.107-0.854,0.208-1.296,0.242l-0.331,0.04L58.03,9.997l-0.006,0  c-0.017,0,0.128,0.004,0.063,0.002h-0.012h-0.05l-0.098,0.001l-0.197,0.001C57.48,10,57.174,10.02,57,9.991  c-0.797-0.03-1.761-0.231-2.567-0.585c-1.655-0.699-3.069-1.994-3.793-3.516c-0.521-1.036-0.811-2.257-0.82-3.386  c0.016-0.316,0.016-0.652,0.045-0.952C49.914,1.269,49.929,0.989,50.001,0.7z"></path></svg>